# xmcd
#
# Track frame offsets:
#	150
#	25700
#	40687
#	52745
#	65502
#	84354
#	91312
#	110567
#	130493
#	148414
#	162198
#	178254
#	191321
#	200871
#	215971
#	231112
#	242358
#	256718
#	272224
#	283952
#
# Disc length: 3976 seconds
# Revision: 0
# Processed by: cddbd v1.5.2PL0 Copyright (c) Steve Scherf et al.
# Submitted via: dBpowerAMP V12.0
#
DISCID=290f8614
DTITLE=Various Artist - Blues In Devon - The Bunker Sessions
DYEAR=2011
DGENRE=Blues
TTITLE0=Various Artist - Julian Piper - Stones In My Passway
TTITLE1=Crosscut - Help Me
TTITLE2=Melanie Cole - Turn Me On
TTITLE3=Lips, Fingers and Thumbs - Filthy Rich
TTITLE4=Tim Royce - Make Me A Pallet On The Floor
TTITLE5=The Difference - Bring It On Home To Me
TTITLE6=Lucky Ol' Sun - The Sky Is Crying 
TTITLE7=Jerry Cahil and Simon Webb - Lost In The Blues
TTITLE8=Julian Piper - Drop Down Mama
TTITLE9=Alan Hooper and Paul Brand - Death Letter
TTITLE10=Luck Ol' Sun - Baby What You Want Me To Do?
TTITLE11=Dick Graham - Worryin' You Off My Mind
TTITLE12=Lips, Fingers and Thumbs - Down By The Riverside
TTITLE13=Jerry Cahill and Simon Webb - Travellin' Alone
TTITLE14=Crosscut - Stormy Monday
TTITLE15=Tim Royce - Crossroads
TTITLE16=Alan Hooper and Paul Brand - Sporting Life
TTITLE17=Dick Graham - Kind Hearted Woman
TTITLE18=The Difference - Bare Footin'
TTITLE19=Ian McKenzie - Dark Was The Night, Cold Was The Ground
EXTD=
EXTT0=
EXTT1=
EXTT2=
EXTT3=
EXTT4=
EXTT5=
EXTT6=
EXTT7=
EXTT8=
EXTT9=
EXTT10=
EXTT11=
EXTT12=
EXTT13=
EXTT14=
EXTT15=
EXTT16=
EXTT17=
EXTT18=
EXTT19=
PLAYORDER=
